<?xml version="1.0" standalone="no"?>
<!DOCTYPE svg PUBLIC "-//W3C//DTD SVG 20010904//EN"
 "http://www.w3.org/TR/2001/REC-SVG-20010904/DTD/svg10.dtd">
<svg version="1.0" xmlns="http://www.w3.org/2000/svg"
 width="157.000000pt" height="234.000000pt" viewBox="0 0 157.000000 234.000000"
 preserveAspectRatio="xMidYMid meet">

<g transform="translate(0.000000,234.000000) scale(0.100000,-0.100000)"
fill="#000000" stroke="none">
<path d="M77 2313 c-4 -3 -7 -362 -7 -797 l1 -791 78 -63 c43 -35 117 -90 165
-123 l86 -59 273 4 c149 2 279 3 287 4 8 0 51 0 95 1 65 0 82 4 93 18 11 15
10 20 -8 35 -27 22 -26 25 18 33 45 7 74 42 48 57 -24 14 -19 26 14 33 35 8
58 41 41 58 -16 16 -13 27 7 27 11 0 24 12 31 26 10 22 9 28 -6 39 -15 11 -15
13 6 20 29 9 51 53 32 65 -11 6 -10 10 4 18 11 5 19 23 20 43 2 19 7 43 11 54
5 11 9 90 8 175 -1 184 -19 264 -89 407 -73 149 -191 251 -330 288 -80 20
-228 20 -295 -2 -63 -20 -142 -88 -163 -140 -18 -48 -29 -125 -19 -138 4 -6
33 -26 66 -45 76 -46 216 -193 251 -265 24 -47 27 -64 22 -111 -7 -72 3 -98
66 -161 l51 -53 -39 -41 c-22 -22 -52 -47 -66 -54 -28 -15 -92 -17 -83 -3 7
11 -9 10 -42 -2 -34 -13 -44 -4 -16 15 21 15 20 16 -39 95 -62 83 -81 94 -99
61 -16 -31 -11 -81 16 -156 40 -110 41 -123 9 -135 -39 -15 -102 -12 -137 6
-27 14 -29 19 -24 47 31 156 20 191 -85 258 -44 28 -84 60 -90 71 -6 11 -10
68 -9 131 1 62 -1 168 -5 236 -11 181 15 276 109 395 25 33 46 69 46 80 1 12
7 35 15 51 l13 30 1 -38 c1 -43 21 -47 32 -6 3 14 15 43 25 65 l19 39 5 -39
c3 -22 10 -41 16 -43 5 -2 20 21 33 52 25 59 35 63 44 15 7 -33 32 -41 41 -12
4 10 20 31 36 47 l30 29 0 -32 c0 -39 11 -40 47 -4 28 27 28 27 31 5 4 -25 22
-29 54 -12 13 7 23 8 27 1 3 -5 42 -15 86 -22 216 -33 421 -167 547 -359 l48
-74 0 321 c0 282 -2 321 -16 326 -21 8 -1429 8 -1437 -1z"/>
<path d="M35 390 c-3 -5 3 -10 14 -10 29 0 32 -23 29 -185 -3 -137 -4 -140
-25 -143 -13 -2 -23 -8 -23 -13 0 -5 62 -9 145 -9 l144 0 11 41 c18 66 9 78
-23 31 -30 -46 -51 -55 -118 -50 l-44 3 -3 140 c-3 161 0 185 28 185 11 0 20
5 20 10 0 13 -147 13 -155 0z"/>
<path d="M360 390 c0 -5 8 -10 19 -10 23 0 31 -35 31 -144 0 -131 -9 -186 -31
-186 -11 0 -19 -4 -19 -10 0 -6 55 -10 144 -10 l144 0 11 44 c20 79 9 89 -27
26 -25 -44 -46 -53 -113 -48 l-44 3 0 160 c0 158 0 160 23 163 12 2 22 8 22
13 0 5 -36 9 -80 9 -47 0 -80 -4 -80 -10z"/>
<path d="M650 394 c0 -3 9 -13 19 -22 11 -10 48 -92 81 -184 34 -93 65 -168
70 -168 4 0 24 42 45 93 76 184 112 255 134 262 11 3 21 11 21 16 0 12 -117
12 -125 -1 -3 -5 1 -10 10 -10 8 0 18 -6 21 -14 5 -13 -69 -223 -85 -239 -10
-10 -85 228 -76 242 3 6 15 11 26 11 10 0 19 5 19 10 0 6 -33 10 -80 10 -44 0
-80 -3 -80 -6z"/>
<path d="M1050 391 c0 -5 10 -11 23 -13 21 -3 22 -6 25 -146 3 -150 -4 -182
-38 -182 -11 0 -20 -4 -20 -10 0 -6 30 -10 70 -10 40 0 70 4 70 10 0 6 -9 10
-19 10 -11 0 -22 8 -25 18 -10 36 -16 179 -9 229 l8 53 64 -155 c35 -85 67
-155 71 -155 5 0 39 70 76 157 l69 156 3 -138 c1 -77 0 -145 -2 -152 -3 -7
-15 -13 -26 -13 -11 0 -20 -4 -20 -10 0 -6 33 -10 80 -10 47 0 80 4 80 10 0 6
-8 10 -19 10 -15 0 -19 11 -25 77 -8 95 -8 201 0 231 4 14 14 22 27 22 15 0
18 3 10 11 -5 5 -34 9 -63 7 l-53 -3 -55 -128 c-30 -70 -57 -125 -61 -122 -3
4 -28 61 -56 128 l-50 122 -68 3 c-39 2 -67 -1 -67 -7z"/>
</g>
</svg>
