<?xml version="1.0" standalone="no"?>
<!DOCTYPE svg PUBLIC "-//W3C//DTD SVG 20010904//EN"
 "http://www.w3.org/TR/2001/REC-SVG-20010904/DTD/svg10.dtd">
<svg version="1.0" xmlns="http://www.w3.org/2000/svg"
 width="512.000000pt" height="512.000000pt" viewBox="0 0 512.000000 512.000000"
 preserveAspectRatio="xMidYMid meet">

<g transform="translate(0.000000,512.000000) scale(0.100000,-0.100000)"
fill="#000000" stroke="none">
<path d="M765 5065 c-381 -37 -649 -127 -736 -248 l-29 -40 0 -948 c0 -547 4
-958 9 -972 35 -91 212 -181 456 -232 123 -25 349 -55 418 -55 74 0 113 75 64
124 -20 20 -38 25 -118 31 -292 21 -559 89 -652 166 l-37 30 0 201 c0 156 3
199 12 195 223 -96 477 -143 828 -154 382 -11 756 40 959 133 29 13 55 24 57
24 2 0 4 -90 4 -200 0 -194 -1 -200 -22 -220 -80 -76 -335 -147 -611 -170 -67
-6 -134 -16 -149 -21 -34 -14 -52 -56 -39 -92 18 -46 45 -52 193 -38 399 38
668 131 748 258 l30 47 0 933 c0 899 -1 935 -19 971 -75 145 -359 245 -806
282 -157 13 -397 11 -560 -5z m546 -145 c371 -29 689 -127 689 -212 0 -38
-142 -106 -305 -147 -347 -86 -926 -84 -1264 5 -210 55 -320 122 -280 170 43
51 212 114 406 149 229 42 501 54 754 35z m-1100 -439 c127 -57 333 -101 576
-122 178 -15 588 -7 728 15 189 29 363 74 448 117 l37 19 0 -204 0 -205 -33
-25 c-109 -83 -377 -146 -706 -167 -447 -27 -929 47 -1087 167 l-34 26 0 204
c0 112 2 204 4 204 2 0 32 -13 67 -29z m179 -653 c197 -49 391 -70 675 -71
389 -1 679 43 873 133 l62 29 0 -203 c0 -197 -1 -203 -22 -223 -70 -64 -253
-122 -503 -160 -171 -25 -639 -25 -810 0 -221 33 -385 82 -472 140 l-48 32 -3
207 -2 207 67 -31 c38 -17 120 -44 183 -60z"/>
<path d="M2311 4251 c-26 -26 -27 -71 -3 -100 13 -17 38 -25 112 -36 204 -30
349 -75 525 -164 160 -81 280 -166 409 -291 216 -208 380 -489 456 -777 20
-77 72 -103 124 -62 36 29 34 64 -14 211 -139 425 -433 785 -828 1012 -201
117 -471 205 -679 222 -74 6 -82 5 -102 -15z"/>
<path d="M2233 2660 c-85 -17 -151 -69 -192 -152 l-31 -61 0 -886 c1 -701 4
-894 14 -922 l13 -37 -55 -11 c-68 -13 -118 -51 -143 -105 -27 -59 -27 -292 0
-351 20 -46 69 -91 109 -103 35 -9 2999 -9 3034 0 40 12 89 57 109 103 15 32
19 65 19 175 0 155 -13 199 -72 244 -26 20 -108 46 -143 46 -2 0 3 21 11 47
11 36 14 126 14 405 0 345 -1 359 -20 378 -33 33 -75 30 -107 -6 -23 -25 -23
-26 -23 -375 0 -383 -1 -387 -59 -428 -29 -21 -30 -21 -1249 -21 l-1219 0 -27
21 c-59 46 -56 1 -56 939 0 969 -5 901 76 940 40 20 60 20 1240 18 1137 -3
1201 -4 1227 -21 16 -10 37 -32 47 -50 19 -30 20 -53 20 -383 0 -340 1 -352
21 -378 27 -34 77 -36 107 -3 22 23 22 27 22 383 0 209 -4 374 -10 395 -25 91
-113 173 -208 195 -46 11 -287 14 -1242 13 -652 -1 -1204 -5 -1227 -9z m617
-2255 c0 -87 49 -153 130 -175 26 -7 200 -10 507 -8 521 3 504 1 558 73 20 25
28 50 32 95 l6 61 429 -3 c368 -3 430 -5 438 -18 5 -8 10 -65 10 -127 0 -101
-2 -113 -19 -123 -27 -14 -2925 -14 -2952 0 -17 10 -19 22 -19 131 0 115 1
120 23 129 12 5 210 9 440 9 l417 1 0 -45z m1075 5 l0 -35 -460 0 -460 0 -3
38 -3 37 463 -2 463 -3 0 -35z"/>
<path d="M422 2474 c-40 -16 -46 -42 -38 -147 50 -610 391 -1145 921 -1445
117 -66 293 -139 418 -172 l88 -23 27 20 c31 23 40 65 21 100 -9 17 -32 29
-83 43 -301 87 -530 215 -734 414 -299 290 -477 668 -508 1074 -10 128 -41
166 -112 136z"/>
<path d="M2303 2376 l-28 -24 0 -797 0 -797 28 -24 28 -24 1132 0 c1237 0
1161 -4 1186 57 8 21 11 235 9 806 l-3 779 -28 24 -28 24 -1134 0 -1134 0 -28
-24z m287 -186 l0 -60 -85 0 -85 0 0 60 0 60 85 0 85 0 0 -60z m1920 0 l0 -60
-885 0 -885 0 0 60 0 60 885 0 885 0 0 -60z m0 -770 l0 -560 -1045 0 -1045 0
0 560 0 560 1045 0 1045 0 0 -560z"/>
</g>
</svg>
