<?xml version="1.0" standalone="no"?>
<!DOCTYPE svg PUBLIC "-//W3C//DTD SVG 20010904//EN"
 "http://www.w3.org/TR/2001/REC-SVG-20010904/DTD/svg10.dtd">
<svg version="1.0" xmlns="http://www.w3.org/2000/svg"
 width="225.000000pt" height="225.000000pt" viewBox="0 0 225.000000 225.000000"
 preserveAspectRatio="xMidYMid meet">

<g transform="translate(0.000000,225.000000) scale(0.100000,-0.100000)"
fill="#000000" stroke="none">
<path d="M426 1968 c-52 -14 -128 -90 -144 -144 -17 -59 -17 -1339 0 -1398 17
-57 90 -128 148 -144 34 -10 204 -12 715 -10 669 3 670 3 711 25 51 27 87 69
108 125 15 39 16 114 14 718 -3 637 -4 677 -22 710 -26 49 -55 79 -101 103
-40 22 -45 22 -715 24 -447 1 -688 -2 -714 -9z m1393 -96 c19 -10 43 -34 53
-53 17 -32 18 -74 18 -698 0 -648 0 -664 -20 -696 -41 -67 -17 -65 -750 -65
-655 0 -663 0 -697 21 -66 41 -63 9 -63 746 0 635 1 670 19 699 40 66 16 64
746 64 621 0 662 -1 694 -18z"/>
<path d="M928 1420 c-128 -39 -160 -165 -63 -255 l34 -33 -41 -32 c-100 -80
-89 -212 22 -267 58 -30 175 -32 235 -4 133 62 131 205 -4 292 l-24 15 37 22
c48 29 80 96 70 149 -17 92 -149 148 -266 113z m128 -106 c32 -31 26 -68 -14
-101 -35 -29 -44 -29 -82 3 -26 22 -31 33 -28 63 5 61 78 82 124 35z m-17
-259 c63 -42 76 -90 36 -130 -52 -53 -165 -21 -165 46 0 41 15 66 53 89 18 11
33 20 35 20 1 0 20 -11 41 -25z"/>
<path d="M1479 1417 c-136 -38 -194 -139 -194 -337 0 -121 9 -154 59 -208 50
-56 166 -80 243 -51 99 37 152 193 101 294 -49 96 -184 124 -259 54 -17 -16
-32 -29 -34 -29 -9 0 18 99 33 119 40 54 68 66 153 66 l80 0 -3 50 -3 50 -65
2 c-36 1 -86 -4 -111 -10z m78 -329 c18 -17 23 -32 23 -73 0 -71 -26 -105 -80
-105 -68 0 -118 86 -86 149 9 16 24 35 33 40 31 18 85 13 110 -11z"/>
<path d="M497 1088 c6 -7 28 -38 51 -69 l41 -57 -50 -70 c-27 -38 -49 -73 -49
-76 0 -3 9 -6 20 -6 13 0 35 21 63 60 l44 59 39 -57 c25 -36 48 -58 62 -60 12
-2 22 0 22 3 0 4 -22 38 -49 77 l-50 70 49 67 c45 61 47 66 27 69 -21 4 -26 0
-78 -68 l-26 -34 -34 52 c-28 42 -39 52 -63 52 -21 0 -26 -3 -19 -12z"/>
</g>
</svg>
